PathFileType	4	(X/Y/Z)	Patient4_TMGait_0pt5_02_left_17.trc.trc
DataRate	CameraRate	NumFrames	NumMarkers	Units	OrigDataRate	OrigDataStartFrame	OrigNumFrames
81.395348837209	81.395348837209	6	33	mm	81.395348837209	124	       141
Frame#	Time	Sacral			L.Shoulder			Chest			R.Shoulder			Neck			R.ASIS			L.ASIS			R.Thigh.Superior			R.Thigh.Lateral			R.Thigh.Inferior			R.Patella			L.Thigh.Superior			L.Thigh.Lateral			L.Thigh.Inferior			L.Patella			L.Shank.Superior			L.Shank.Lateral			L.Shank.Inferior			R.Shank.Superior			R.Shank.Lateral			R.Shank.Inferior			R.Heel			R.Midfoot.Superior			R.Midfoot.Lateral			R.Toe			L.Heel			L.Midfoot.Lateral			L.Midfoot.Superior			L.Toe			L.Elbow			L.Wrist			R.Elbow			R.Wrist			
		X1	Y1	Z1	X2	Y2	Z2	X3	Y3	Z3	X4	Y4	Z4	X5	Y5	Z5	X6	Y6	Z6	X7	Y7	Z7	X8	Y8	Z8	X9	Y9	Z9	X10	Y10	Z10	X11	Y11	Z11	X12	Y12	Z12	X13	Y13	Z13	X14	Y14	Z14	X15	Y15	Z15	X16	Y16	Z16	X17	Y17	Z17	X18	Y18	Z18	X19	Y19	Z19	X20	Y20	Z20	X21	Y21	Z21	X22	Y22	Z22	X23	Y23	Z23	X24	Y24	Z24	X25	Y25	Z25	X26	Y26	Z26	X27	Y27	Z27	X28	Y28	Z28	X29	Y29	Z29	X30	Y30	Z30	X31	Y31	Z31	X32	Y32	Z32	X33	Y33	Z33	

124	23.041142857143	637.575392122855	1014.842552296333	517.922946799879	834.835053055642	1424.553343216585	330.231820428815	938.752265659549	1348.981053868419	489.652671877504	865.808560246241	1433.677328574745	664.523295235656	838.436101039716	1487.759926600459	480.383561400556	856.989298914517	932.585275507971	635.088677566343	846.227494423090	950.863475218205	360.134989727350	854.759760994890	720.067895332479	608.069400147318	749.465478988356	629.860637464107	666.995570354505	811.966509213943	561.967811039406	589.288837558850	795.541367506260	478.041148208662	593.187933511578	910.153361823917	764.687368107392	395.716226404973	855.572057715065	638.984444270743	318.666999594632	951.233075508826	576.163445312960	387.626058095057	973.520001997154	509.906398531618	388.357930240265	956.307292310186	438.466576897718	376.725321965527	890.614127548538	309.636769864059	323.726625976283	971.743267969210	209.956166278827	385.955196966803	757.185262236038	395.232424914643	599.129128108215	673.337008971168	300.365990088241	658.106480518667	705.112594894651	201.387058283794	596.241790640631	557.978853145733	43.226566591491	559.292602282739	726.470929922576	96.242776064947	605.569265069181	635.687923044896	36.141211980393	639.744024603837	843.946107939115	42.932945631205	643.479149858971	879.545385829367	37.341615774350	421.645810530203	957.268159286414	38.924067580595	345.002067667871	1031.237637399916	110.109227273514	370.527620172103	1163.946468607080	73.236950170219	350.662041913609	717.458049074846	1085.461450010309	234.203670612479	712.551322065559	826.075105486810	220.588467120943	922.658786232214	1106.484095198184	799.123664664883	1168.304155022496	1129.791013200232	760.394223671395	
125	23.053428571429	639.398530117251	1013.404932248857	515.715123780157	834.909562128589	1423.566118710268	327.729958186875	938.935062157771	1348.788892594375	487.473374751907	864.994386019627	1433.146973782882	662.140432325531	837.894863335284	1486.927975412623	477.816179479129	858.850104700070	931.784951984459	633.681085158677	848.683924102973	949.508146854813	358.818171783090	855.581110271806	718.850774760593	606.978345622249	749.205904901033	629.174298247692	665.739368815200	811.108140368830	560.774815380334	588.226552760687	794.060581374441	476.507647251458	592.025536493645	912.200862031412	762.600105242184	394.094453738696	855.618071687422	637.135213768834	318.099060316967	951.683518507847	574.433736086624	386.496527347264	972.469751262760	507.520013488233	387.791528531221	955.243080027116	435.802961622477	376.192786975618	888.287549179688	307.445351715328	323.684880259352	968.415464909168	207.271965888099	386.254695082679	754.555047876936	394.186866661907	598.027877851349	669.717741075637	300.338598691590	657.330636884465	700.299653408352	200.945187634043	595.694426303884	551.789683139892	43.374503144136	559.254593090082	720.412944307904	96.223596960800	605.381745520566	629.534780516009	36.179747619991	639.646000547806	837.796079430393	42.815209572907	643.501250234734	873.526723609627	37.019763260027	422.285981401581	950.962871362798	37.483154091941	345.220692260130	1026.676978359962	106.592792147422	371.205303636712	1158.687141299532	66.620196704224	350.560992352278	719.565656081760	1083.590194588173	232.057370340829	717.499479998615	824.030354556538	218.781916941409	923.325383951042	1105.376124370902	795.390196447720	1168.852079843288	1128.320206394647	755.056354447612	
126	23.065714285714	641.145036009167	1012.079936307675	513.532114876978	835.143726575010	1422.597102999975	325.140708848470	939.229572785438	1348.624590352037	485.240887353487	864.308934003080	1432.694296757616	659.687435327640	837.516975168851	1486.167808018054	475.142670897230	860.668364763800	931.010837350063	632.173881096158	851.053623683549	948.351797495015	357.428781490162	856.752528441248	717.712904214980	605.809189727501	749.509430738196	628.418054479053	664.367418128871	810.956451986585	559.608176643986	587.004295995883	793.332389351479	474.841202992433	590.718662625917	914.334047465394	760.902623867172	392.581744362809	856.277298030840	635.767125342041	317.466145888302	952.616260784834	573.192517789525	385.509180552139	971.857145981340	505.535141130678	387.328921284217	954.623728289632	433.506394965770	375.728249264076	886.456839971537	305.726073213425	323.370354765973	965.170162493170	204.932793182317	386.531004232927	752.543134771281	393.042986736762	596.816780712211	666.582154542871	300.370670252763	656.488739352745	695.770706775291	200.530842680861	595.106164666284	545.641845055505	43.765878989911	559.244911820742	714.473329591436	96.246273004696	605.186816618452	623.440834130516	36.355830027278	639.552094111766	831.716784264676	42.610955669244	643.531801087025	867.366487957190	36.858418987861	422.684402301660	944.612419082925	36.383423340986	345.308229945250	1021.879219694087	103.583156230729	371.864137340023	1153.254664696955	60.838796530194	350.617484043556	722.180238908344	1081.619702990595	229.726767025682	723.136209051576	821.912232487935	216.731308169322	923.282764128380	1104.219999354391	791.853467195126	1168.756197504065	1126.038118837143	749.649039570912	
127	23.078000000000	642.774045979981	1010.932699694709	511.399823800959	835.524582801648	1421.701369401731	322.508971104487	939.634407801776	1348.510969957451	482.973821037316	863.820994153028	1432.378506825388	657.189606577323	837.329362803120	1485.535930546522	472.402887650665	862.383305135727	930.325990344018	630.561936922380	853.266201877361	947.477661383581	355.941896416741	858.227379554888	716.723443691062	604.511648087108	750.407062820686	627.626329717208	662.877165063753	811.569291571691	558.514483784112	585.620357129289	793.436789335557	473.073244987514	589.316162125625	916.545318552987	759.731157590409	391.205573141308	857.585147154722	634.948140876941	316.766382417100	954.004152998472	572.465239051128	384.669502576285	971.718290610039	504.009767535885	386.960497040393	954.446360299843	431.636802295337	375.346270522319	885.133115999364	304.535123257557	322.796166416122	962.027778770419	203.006325156801	386.778893101072	751.218598977867	391.837042591778	595.534883305343	663.982442689590	300.515784037311	655.600361023025	691.577989301913	200.198685639780	594.500572876436	539.563878524464	44.518401629652	559.272322389902	708.700073028238	96.337850822986	605.006748298337	617.427721204559	36.740288941961	639.470452389446	825.722987954348	42.301604789836	643.573715648003	861.203451599131	36.830725200832	422.874762819090	938.342545832724	35.628612419981	345.289944902792	1016.895998034230	101.186399315340	372.464140782972	1147.729470875846	56.151681270044	350.778132813321	725.311421092179	1079.616290425087	227.237225621524	729.442723182322	819.798575314054	214.452388507559	922.525948574356	1103.061651487890	788.519817885307	1167.998970416501	1122.924721730880	744.200896542614	
128	23.090285714286	644.263952938541	1010.011451960680	509.322017637113	836.026985207070	1420.931248314432	319.878828778494	940.137086983860	1348.472115449634	480.691614703403	863.575815608661	1432.250989144344	654.672083444206	837.335793219676	1485.079897133410	469.639042783787	863.949339702078	929.795059638535	628.846627529815	855.281913417675	946.940880666360	354.334984104915	859.956968926931	715.949779547427	603.046907767548	751.908884929892	626.841358770360	661.275587087359	812.982310952630	557.543681551688	584.093015037156	794.433212938961	471.243524147685	587.893772618752	918.822100508260	759.155697101229	389.972803573006	859.485254527265	634.671192941283	316.008021995060	955.747733273171	572.201306350080	383.967437760082	972.011928073118	502.928679081848	386.677750403609	954.628243640148	430.190474432785	375.061342304402	884.228129049677	303.860858216607	322.016909406001	958.946789897055	201.500256213471	387.003364516705	750.630895038437	390.615470426328	594.238021626918	661.954834880186	300.835466354930	654.692488299207	687.770542933722	200.012634780281	593.908333806940	533.592418066224	45.761428112129	559.340990797216	703.143898304888	96.528341576454	604.867321356381	611.517864489371	37.412176591897	639.407519759055	819.822064221197	41.877390034216	643.628695803066	855.105630084614	36.899581158510	422.900428812201	932.203779110998	35.185307656086	345.194983352969	1011.745732668880	99.423021029676	372.980555541639	1142.145148710593	52.651142192470	350.989683219406	728.948301975988	1077.650920761178	224.614937095715	736.409253254104	817.773642920596	211.965907539589	921.060785196179	1101.957966452083	785.379255943559	1166.560602423480	1118.946334311061	738.741988809024	
129	23.102571428571	645.613240108466	1009.342012748166	507.280842247121	836.617633938809	1420.330023948578	317.287118926329	940.714935264090	1348.531571088941	478.412462938540	863.584438568956	1432.347610933932	652.157025167282	837.516869779326	1484.832437469479	466.890026560780	865.340843244095	929.474198849749	627.036719816629	857.094786576547	946.761419768612	352.594753336107	861.900600320985	715.448139184582	601.397265308779	754.005408837634	626.107271357147	659.579544154412	815.209569846011	556.742126600824	582.460345312763	796.358333499873	469.395329739041	586.544961094423	921.136702568130	759.156818959249	388.860626708222	861.814272378898	634.851161998756	315.203518599974	957.678616010176	572.281906976262	383.374216059589	972.616565851859	502.214525191357	386.472282049134	955.016084754182	429.111119692822	374.879358267009	883.575031473838	303.630387450931	321.117163697362	955.847881769261	200.372627331156	387.214629178944	750.809730683232	389.430203714529	592.990686254434	660.520649656685	301.394805993745	653.794762544541	684.392796925386	200.040384117035	593.362848246783	527.772235513234	47.627094186680	559.447736997510	697.854484938850	96.848499262102	604.793857855606	605.733427229145	38.454300201226	639.365124370870	814.011083947409	41.340576808212	643.696563806025	849.089199671274	37.025762202404	422.809182554294	926.193154316134	34.995082013731	345.053116029390	1006.433527926925	98.240533664248	373.405103435261	1136.507994406849	50.275435326938	351.207945058284	733.057686835469	1075.791956559594	221.884210262131	744.036792814559	815.922197461166	209.296982391468	918.903300976930	1100.969385711002	782.407821739764	1164.414366115054	1114.058926072644	733.307625663770	
